<svg width="97" height="88" viewBox="0 0 97 88" fill="none" xmlns="http://www.w3.org/2000/svg">
<g id="Group 953">
<g id="Group 948">
<path id="Vector" opacity="0.6" d="M19.4747 74.4786C13.3717 79.2092 0.147832 81.4933 0.147832 81.4933C0.147832 81.4933 5.43921 69.4444 11.5522 64.716C17.6652 59.9875 23.3808 60.7282 23.3808 60.7282L26.1332 64.1175C26.1332 64.1175 25.5636 69.7657 19.4747 74.4786Z" fill="#6AD38B"/>
<path id="Vector_2" opacity="0.8" d="M21.5998 69.4567C17.9773 72.307 10.15 73.6958 10.15 73.6958C10.15 73.6958 13.2999 66.4614 16.9224 63.6111C18.8684 61.9597 21.3731 61.1005 23.9356 61.2052L25.5521 63.2542C25.0673 65.7435 23.6565 67.9576 21.5998 69.4567Z" fill="#6AD38B"/>
</g>
<g id="freepik--Rocket--inject-14">
<path id="Vector_3" d="M41.4095 33.7825C41.2364 33.547 30.785 27.6913 20.5567 34.3888C11.1658 40.5609 7.26078 53.2428 8.43418 53.6433C9.86652 54.1375 14.2403 48.2827 22.1179 45.4979C24.9143 44.5107 29.1718 46.0525 29.1718 46.0525L41.4095 33.7825Z" fill="#6AD38B"/>
<path id="Vector_4" opacity="0.1" d="M29.6179 45.7231C28.3653 45.2702 27.0728 44.9649 25.7669 44.8135C27.578 41.4447 30.9613 35.1572 33.1573 31.0907C37.9065 31.6015 41.3372 33.6069 41.4331 33.7374L29.6179 45.7231Z" fill="#1F2D37"/>
<path id="Vector_5" d="M56.2819 55.388C56.4551 55.6236 58.916 67.3648 49.4663 75.1165C40.7729 82.233 27.5125 82.1589 27.4758 80.9214C27.4344 79.403 34.3287 76.9801 39.3406 70.2916C41.1169 67.9259 40.9235 63.3976 40.9235 63.3976L56.2819 55.388Z" fill="#6AD38B"/>
<path id="Vector_6" opacity="0.1" d="M56.121 64.2435C51.3889 65.2639 44.1398 66.8147 40.293 67.6446C40.5917 66.3038 40.7308 64.9315 40.7075 63.5565L56.2852 55.3925C56.3914 55.5205 57.2278 59.4399 56.121 64.2435Z" fill="#1F2D37"/>
<path id="Vector_7" d="M31.644 67.9387L21.9921 54.8078C21.9921 54.8078 28.3065 40.6221 41.7847 31.8345C48.5395 27.4621 56.2838 24.3878 63.1876 22.4998C72.7159 19.8821 80.5796 19.5233 81.6992 21.0544C82.8189 22.5856 80.1314 29.9784 74.7842 38.3001C70.9104 44.3184 65.6639 50.8147 59.4671 55.9302C47.0524 66.1647 31.644 67.9387 31.644 67.9387Z" fill="#DBDBDB"/>
<path id="Vector_8" d="M58.1558 49.351C56.7035 50.4184 54.9643 51.0267 53.1582 51.0989C51.352 51.171 49.5601 50.7038 48.0089 49.7564C46.4578 48.809 45.2172 47.4238 44.4441 45.7762C43.6709 44.1286 43.3999 42.2925 43.6654 40.5001C43.9309 38.7078 44.7209 37.0397 45.9355 35.7069C47.1501 34.3741 48.7347 33.4364 50.4889 33.0125C52.2432 32.5886 54.0882 32.6974 55.7907 33.3253C57.4932 33.9531 58.9766 35.0718 60.0533 36.5397C61.4954 38.5078 62.1055 40.9623 61.7497 43.3643C61.3939 45.7663 60.1014 47.9195 58.1558 49.351Z" fill="#C7C7C7"/>
<path id="Vector_9" d="M59.1138 48.3903C57.6617 49.4576 55.9227 50.0658 54.1168 50.1381C52.3108 50.2104 50.519 49.7434 48.9679 48.7963C47.4169 47.8491 46.1762 46.4643 45.4028 44.8171C44.6294 43.1698 44.3581 41.3339 44.6231 39.5417C44.8881 37.7495 45.6775 36.0814 46.8915 34.7483C48.1055 33.4153 49.6897 32.4771 51.4435 32.0526C53.1974 31.628 55.0423 31.7361 56.7448 32.3631C58.4474 32.9901 59.9312 34.1079 61.0086 35.5752C61.7239 36.5494 62.2423 37.6537 62.5343 38.825C62.8262 39.9962 62.8859 41.2115 62.71 42.4015C62.534 43.5915 62.1259 44.7329 61.5089 45.7604C60.8918 46.788 60.078 47.6816 59.1138 48.3903Z" fill="#6AD38B"/>
<path id="Vector_10" d="M57.053 46.8211C56.0592 47.5523 54.8687 47.9692 53.6323 48.0188C52.3958 48.0685 51.1691 47.7487 50.1073 47.1C49.0455 46.4513 48.1964 45.5029 47.6676 44.3747C47.1388 43.2466 46.954 41.9895 47.1366 40.7627C47.3192 39.5359 47.861 38.3944 48.6934 37.4829C49.5258 36.5713 50.6114 35.9307 51.8127 35.6421C53.014 35.3534 54.277 35.4298 55.4417 35.8615C56.6065 36.2932 57.6207 37.0608 58.3559 38.0672C59.338 39.4136 59.7524 41.0906 59.5082 42.7311C59.264 44.3717 58.3812 45.8423 57.053 46.8211Z" fill="#CECECE"/>
<path id="Vector_11" d="M74.9978 38.0864L63.5219 22.474C73.2779 19.6388 81.2907 19.1085 82.3975 20.6224C83.5042 22.1363 80.6207 29.6117 74.9978 38.0864Z" fill="#6AD38B"/>
<path id="Vector_12" d="M67.2647 23.4831C67.1884 23.5392 67.0971 23.5713 67.0022 23.5752C66.9074 23.5792 66.8132 23.5548 66.7316 23.5053C66.65 23.4558 66.5846 23.3832 66.5436 23.2969C66.5027 23.2105 66.488 23.1141 66.5015 23.0199C66.5149 22.9257 66.5559 22.8378 66.6193 22.7674C66.6826 22.697 66.7655 22.6472 66.8575 22.6242C66.9494 22.6012 67.0464 22.6062 67.1361 22.6384C67.2258 22.6706 67.3042 22.7286 67.3615 22.8052C67.3999 22.8564 67.4278 22.9146 67.4437 22.9765C67.4595 23.0384 67.4631 23.1027 67.4541 23.1657C67.4451 23.2288 67.4237 23.2893 67.3912 23.3437C67.3587 23.3982 67.3157 23.4456 67.2647 23.4831Z" fill="white"/>
<path id="Vector_13" d="M69.2031 26.3889C69.1267 26.4452 69.0352 26.4772 68.9402 26.4811C68.8451 26.4849 68.7508 26.4604 68.6692 26.4106C68.5875 26.3608 68.5222 26.2879 68.4814 26.2012C68.4407 26.1146 68.4263 26.0179 68.4402 25.9236C68.4541 25.8293 68.4956 25.7415 68.5595 25.6713C68.6234 25.6011 68.7067 25.5517 68.799 25.5293C68.8913 25.5069 68.9884 25.5125 69.078 25.5455C69.1677 25.5784 69.2458 25.6372 69.3025 25.7144C69.3786 25.8179 69.4109 25.9471 69.3923 26.0736C69.3736 26.2001 69.3056 26.3136 69.2031 26.3889Z" fill="white"/>
<path id="Vector_14" d="M71.1416 29.2942C71.0652 29.3504 70.9737 29.3825 70.8787 29.3863C70.7836 29.3902 70.6893 29.3657 70.6076 29.3159C70.526 29.266 70.4606 29.1932 70.4199 29.1065C70.3791 29.0198 70.3648 28.9232 70.3787 28.8289C70.3926 28.7346 70.4341 28.6467 70.498 28.5765C70.5618 28.5063 70.6452 28.4569 70.7375 28.4345C70.8298 28.4121 70.9269 28.4178 71.0165 28.4507C71.1061 28.4837 71.1843 28.5425 71.241 28.6197C71.3171 28.7232 71.3494 28.8524 71.3307 28.9789C71.3121 29.1054 71.2441 29.2188 71.1416 29.2942Z" fill="white"/>
<path id="Vector_15" d="M73.0811 32.2C72.9786 32.2754 72.8502 32.3065 72.7239 32.2866C72.5977 32.2667 72.484 32.1974 72.4079 32.0939C72.3318 31.9904 72.2995 31.8612 72.3182 31.7347C72.3368 31.6082 72.4048 31.4947 72.5073 31.4194C72.6107 31.3446 72.7397 31.3142 72.8663 31.3348C72.9928 31.3553 73.1067 31.425 73.183 31.5289C73.2577 31.6324 73.289 31.7611 73.2699 31.8868C73.2508 32.0125 73.1829 32.125 73.0811 32.2Z" fill="white"/>
<path id="Vector_16" d="M74.0527 34.1354C73.976 34.1918 73.8841 34.2239 73.7887 34.2275C73.6933 34.2311 73.5987 34.2062 73.5169 34.1558C73.4352 34.1055 73.37 34.032 73.3297 33.9447C73.2893 33.8574 73.2757 33.7603 73.2905 33.6658C73.3053 33.5712 73.3478 33.4835 73.4127 33.4138C73.4776 33.344 73.5618 33.2955 73.6548 33.2742C73.7477 33.253 73.8451 33.26 73.9346 33.2945C74.024 33.3289 74.1015 33.3892 74.1571 33.4677C74.2295 33.5717 74.259 33.6994 74.2396 33.824C74.2201 33.9485 74.1531 34.0602 74.0527 34.1354Z" fill="white"/>
<path id="Vector_17" d="M25.0615 54.1738C24.9851 54.23 24.8936 54.2621 24.7986 54.2659C24.7035 54.2698 24.6092 54.2452 24.5276 54.1954C24.4459 54.1456 24.3806 54.0728 24.3398 53.9861C24.2991 53.8994 24.2847 53.8028 24.2986 53.7085C24.3125 53.6141 24.354 53.5263 24.4179 53.4561C24.4818 53.3859 24.5651 53.3365 24.6574 53.3141C24.7497 53.2917 24.8468 53.2974 24.9364 53.3303C25.0261 53.3633 25.1042 53.4221 25.1609 53.4993C25.237 53.6028 25.2693 53.732 25.2506 53.8585C25.232 53.985 25.164 54.0984 25.0615 54.1738Z" fill="#C7C7C7"/>
<path id="Vector_18" d="M26.0371 57.0744C25.9346 57.1498 25.806 57.1808 25.6796 57.1606C25.5531 57.1404 25.4391 57.0706 25.3627 56.9667C25.3244 56.9156 25.2966 56.8574 25.281 56.7956C25.2653 56.7339 25.262 56.6697 25.2714 56.607C25.2808 56.5443 25.3026 56.4843 25.3356 56.4305C25.3686 56.3767 25.412 56.3303 25.4634 56.2939C25.5658 56.2186 25.6944 56.1876 25.8209 56.2078C25.9474 56.228 26.0613 56.2977 26.1378 56.4017C26.176 56.4528 26.2038 56.5109 26.2195 56.5727C26.2352 56.6345 26.2384 56.6986 26.2291 56.7613C26.2197 56.824 26.1978 56.884 26.1649 56.9378C26.1319 56.9916 26.0885 57.038 26.0371 57.0744Z" fill="#C7C7C7"/>
<path id="Vector_19" d="M27.9766 59.9803C27.9002 60.0365 27.8087 60.0686 27.7136 60.0724C27.6186 60.0763 27.5243 60.0518 27.4426 60.002C27.3609 59.9521 27.2956 59.8793 27.2549 59.7926C27.2141 59.7059 27.1998 59.6093 27.2137 59.515C27.2276 59.4207 27.2691 59.3328 27.3329 59.2626C27.3968 59.1924 27.4801 59.143 27.5724 59.1206C27.6647 59.0982 27.7618 59.1039 27.8515 59.1368C27.9411 59.1698 28.0192 59.2286 28.076 59.3058C28.151 59.4097 28.1826 59.5386 28.164 59.6647C28.1454 59.7909 28.0781 59.9042 27.9766 59.9803Z" fill="#C7C7C7"/>
<path id="Vector_20" d="M29.9151 62.8856C29.8387 62.9418 29.7472 62.9739 29.6521 62.9777C29.5571 62.9816 29.4627 62.957 29.3811 62.9072C29.2994 62.8574 29.2341 62.7846 29.1933 62.6979C29.1526 62.6112 29.1383 62.5146 29.1522 62.4203C29.1661 62.3259 29.2076 62.2381 29.2714 62.1679C29.3353 62.0977 29.4186 62.0483 29.5109 62.0259C29.6032 62.0035 29.7003 62.0092 29.7899 62.0421C29.8796 62.0751 29.9577 62.1339 30.0144 62.2111C30.0905 62.3146 30.1228 62.4438 30.1042 62.5703C30.0855 62.6968 30.0175 62.8102 29.9151 62.8856Z" fill="#C7C7C7"/>
<path id="Vector_21" d="M31.8496 64.8255C31.7732 64.8817 31.6817 64.9138 31.5867 64.9176C31.4916 64.9215 31.3973 64.897 31.3157 64.8472C31.234 64.7974 31.1687 64.7245 31.1279 64.6378C31.0872 64.5511 31.0728 64.4545 31.0867 64.3602C31.1006 64.2659 31.1421 64.178 31.206 64.1079C31.2698 64.0377 31.3532 63.9882 31.4455 63.9658C31.5378 63.9435 31.6349 63.9491 31.7245 63.982C31.8141 64.015 31.8923 64.0738 31.949 64.151C32.0251 64.2545 32.0574 64.3837 32.0387 64.5102C32.0201 64.6367 31.9521 64.7501 31.8496 64.8255Z" fill="#C7C7C7"/>
<path id="Vector_22" d="M27.3288 69.0766L19.4666 58.3647L22.9561 55.0305L31.5517 66.7481L27.3288 69.0766Z" fill="#6AD38B"/>
<path id="Vector_23" opacity="0.1" d="M30.5939 66.7397L28.8721 67.6232L20.9238 56.1061L21.9932 55.0258L30.5939 66.7397Z" fill="#1F2D37"/>
</g>
</g>
</svg>
