<svg width="48" height="48" viewBox="0 0 48 48" fill="none" xmlns="http://www.w3.org/2000/svg">
<g id="Layer_1" clip-path="url(#clip0_926_2264)">
<path id="Vector" d="M32.2361 18.804H15.7651C14.4402 18.804 13.3662 19.8785 13.3662 21.204V26.7955C13.3662 28.1209 14.4402 29.1955 15.7651 29.1955H32.2361C33.5609 29.1955 34.635 28.1209 34.635 26.7955V21.204C34.635 19.8785 33.5609 18.804 32.2361 18.804Z" fill="#1F2D37"/>
<path id="Vector_2" d="M5.94602 48C9.22399 48 11.8813 45.3415 11.8813 42.062C11.8813 38.7826 9.22399 36.124 5.94602 36.124C2.66806 36.124 0.0107422 38.7826 0.0107422 42.062C0.0107422 45.3415 2.66806 48 5.94602 48Z" fill="#1F2D37"/>
<path id="Vector_3" d="M40.3289 45.5371H6.44141V38.5871H40.3289C40.7287 38.5871 41.0535 38.2621 41.0535 37.8621V27.7116H36.1183V20.2891H48.0004V37.8621C48.0004 42.0941 44.5589 45.5371 40.3289 45.5371Z" fill="#1F2D37"/>
<path id="Vector_4" d="M42.0534 11.876C45.3314 11.876 47.9887 9.21747 47.9887 5.938C47.9887 2.65853 45.3314 0 42.0534 0C38.7755 0 36.1182 2.65853 36.1182 5.938C36.1182 9.21747 38.7755 11.876 42.0534 11.876Z" fill="#1F2D37"/>
<path id="Vector_5" d="M11.8821 27.7114H0V10.1379C0 5.90589 3.44142 2.46289 7.67148 2.46289H41.559V9.41289H7.67148C7.27167 9.41289 6.94682 9.73789 6.94682 10.1379V20.2884H11.8821V27.7109V27.7114Z" fill="#1F2D37"/>
</g>
<defs>
<clipPath id="clip0_926_2264">
<rect width="48" height="48" fill="white"/>
</clipPath>
</defs>
</svg>
