<svg width="95" height="84" viewBox="0 0 95 84" fill="none" xmlns="http://www.w3.org/2000/svg">
<g id="freepik--speech-bubble--inject-33">
<path id="Vector" d="M49.4518 74.4987C64.0019 69.2616 70.6246 50.4617 64.244 32.508C57.8633 14.5543 40.8955 4.24551 26.3454 9.48263C11.7952 14.7197 5.17254 33.5196 11.5532 51.4733C17.9339 69.427 34.9016 79.7359 49.4518 74.4987Z" fill="#1F2D37"/>
<path id="Vector_2" d="M48.9234 68.112C60.6155 63.9036 65.8958 48.6798 60.7173 34.1087C55.5388 19.5375 41.8625 11.1369 30.1704 15.3453C18.4783 19.5537 13.198 34.7775 18.3765 49.3486C23.555 63.9197 37.2313 72.3204 48.9234 68.112Z" fill="white"/>
<path id="Vector_3" d="M50.4762 61.1018C60.0897 57.6415 64.5095 45.3445 60.3482 33.6355C56.1869 21.9266 45.0203 15.2397 35.4068 18.7C25.7933 22.1602 21.3734 34.4572 25.5347 46.1662C29.696 57.8751 40.8627 64.562 50.4762 61.1018Z" fill="#1F2D37"/>
<path id="Vector_4" d="M57.658 35.4312C61.0166 44.4809 57.8564 53.8444 50.5724 56.3423C43.2883 58.8402 34.7006 53.6124 31.342 44.4945C27.9834 35.3766 31.1436 26.0813 38.4276 23.5834C45.7117 21.0856 54.2994 26.3816 57.658 35.4312Z" fill="white"/>
<path id="Vector_5" d="M53.0493 37.2777C55.3336 43.9528 53.3602 50.7831 48.6428 52.5471C43.9254 54.3111 38.2348 50.3315 35.9504 43.6705C33.6661 37.0096 35.6395 30.1511 40.3704 28.3871C45.1013 26.623 50.8055 30.5462 53.0493 37.2777Z" fill="#1F2D37"/>
<path id="Vector_6" d="M52.2205 37.8038C53.9916 42.6236 52.6415 47.5139 49.2155 48.7012C45.7895 49.8884 41.5506 46.9627 39.7795 42.1289C38.0084 37.295 39.3585 32.4329 42.7845 31.2315C46.2105 30.0301 50.4494 33.0124 52.2205 37.8038Z" fill="white"/>
<path id="Vector_7" d="M90.3646 15.9653L81.6682 19.07L80 26.9406L86.3035 31.9653L95 28.8742L88.546 23.8904L90.3646 15.9653Z" fill="#6AD38B"/>
<path id="Vector_8" d="M47.4332 40.9632C47.1387 40.9797 46.8469 40.899 46.6018 40.7334C46.3568 40.5678 46.1719 40.3263 46.075 40.0453C45.9575 39.7037 45.9787 39.3291 46.1339 39.0032C46.2891 38.6773 46.5657 38.4265 46.9035 38.3055L89.1833 23.0442C89.5237 22.9225 89.8981 22.9422 90.2241 23.0989C90.5501 23.2556 90.8011 23.5365 90.9217 23.8799C91.0424 24.2232 91.0229 24.6009 90.8675 24.9297C90.7122 25.2586 90.4336 25.5117 90.0932 25.6334L47.8135 40.881C47.6913 40.9266 47.5632 40.9543 47.4332 40.9632Z" fill="#1F2D37"/>
</g>
</svg>
